<svg width="19" height="23" viewBox="0 0 19 23" fill="none" xmlns="http://www.w3.org/2000/svg">
<path d="M4.91302 6.2792L4.92776 6.27774C5.7182 6.19937 6.51443 6.42417 7.27666 6.70227C7.42901 6.75786 7.59243 6.82044 7.75423 6.8824C7.96492 6.96308 8.17284 7.0427 8.34993 7.10443C8.67323 7.21713 9.02396 7.32014 9.34636 7.32014C9.65837 7.32014 9.98137 7.23565 10.2809 7.13637C10.5028 7.06281 10.7427 6.96995 10.9799 6.87817C11.0632 6.84593 11.1462 6.81382 11.2279 6.78273C11.885 6.53274 12.5377 6.31932 13.1863 6.33106L13.1876 6.33109C14.9898 6.35913 16.6588 7.3512 17.5914 8.93406L17.592 8.93508C18.5387 10.5332 18.6793 12.5543 18.3155 14.5599C17.9524 16.562 17.0967 18.4858 16.1361 19.8358L16.1359 19.836C15.6428 20.5299 15.1339 21.2196 14.5726 21.7312C14.0133 22.2411 13.4607 22.5199 12.8799 22.4989C12.2841 22.4763 11.8712 22.3055 11.3603 22.0942C11.3252 22.0797 11.2897 22.065 11.2536 22.0501C10.6831 21.8153 10.0258 21.5685 9.03623 21.5685C8.0398 21.5685 7.39239 21.8337 6.83308 22.0692L6.81253 22.0778C6.27848 22.3028 5.85205 22.4824 5.19466 22.4706L5.19451 22.4706C4.558 22.4594 4.01999 22.1826 3.50569 21.7139C2.98087 21.2356 2.51604 20.5908 2.0249 19.8915L2.02479 19.8913C1.27327 18.8222 0.829287 17.7766 0.619804 17.2132C1.49936 16.7519 3.60204 15.3309 3.63033 12.3588L4.91302 6.2792ZM4.91302 6.2792L4.89822 6.27979M4.91302 6.2792L4.89822 6.27979M4.89822 6.27979C4.24761 6.30558 2.5639 6.51905 1.33679 7.916L4.89822 6.27979ZM8.09515 2.01799L8.09514 2.018L8.09291 2.01582C7.34866 1.28811 6.13706 0.713448 5.04987 0.546772C5.08893 1.47759 5.57537 2.4142 6.29693 3.14387C7.03898 3.89153 8.20288 4.48479 9.36774 4.54925C9.33646 3.63786 8.78225 2.68148 8.09515 2.01799Z" stroke="#4E4E4E"/>
</svg>
