<svg width="36" height="36" viewBox="0 0 36 36" fill="none" xmlns="http://www.w3.org/2000/svg">
<path d="M18 21.5556C18 20.5724 18.8036 19.7973 19.7671 19.6124C22.8391 19.0222 25.1111 16.9333 25.1111 14.4444C25.1111 11.4987 21.9289 9.11111 18 9.11111C15.8453 9.16622 11.051 10.31 9.11111 14.4444M18 26.8889H18.0178M34 18C34 20.1012 33.5861 22.1817 32.7821 24.1229C31.978 26.0641 30.7994 27.828 29.3137 29.3137C27.828 30.7994 26.0641 31.978 24.1229 32.7821C22.1817 33.5861 20.1012 34 18 34C15.8989 34 13.8183 33.5861 11.8771 32.7821C9.93586 31.978 8.17203 30.7994 6.68629 29.3137C5.20055 27.828 4.022 26.0641 3.21793 24.1229C2.41385 22.1817 2 20.1012 2 18C2 13.7565 3.68571 9.68687 6.68629 6.68629C9.68687 3.68571 13.7565 2 18 2C22.2435 2 26.3131 3.68571 29.3137 6.68629C32.3143 9.68687 34 13.7565 34 18Z" stroke="#FD9C00" stroke-width="3" stroke-linecap="round" stroke-linejoin="round"/>
</svg>
