<svg width="23" height="23" viewBox="0 0 23 23" fill="none" xmlns="http://www.w3.org/2000/svg">
<path d="M20.7804 10.9521C19.7769 6.47422 15.7518 3.24273 11.1406 3.24273C10.9943 3.24273 10.8505 3.25535 10.7055 3.26165C10.8614 2.97663 11.3625 2.29897 12.7721 1.83907C12.9928 1.76719 13.1134 1.53009 13.0415 1.30897C12.9697 1.08869 12.733 0.96762 12.5114 1.03993C11.4235 1.39473 10.7681 1.8891 10.3776 2.3099C9.97485 1.43677 9.07523 0.403466 7.04982 0.00788573C6.82198 -0.0366749 6.60128 0.112141 6.55671 0.339988C6.51215 0.567836 6.66097 0.788537 6.88882 0.833098C9.17108 1.2787 9.70412 2.61216 9.8273 3.27552C9.82772 3.29696 9.82856 3.31756 9.83192 3.33858C5.78615 3.8834 2.40753 6.90343 1.50035 10.9513C0.57046 11.5714 0 12.6274 0 13.7515C0 15.0673 0.786537 16.2755 1.97538 16.8156C3.47194 20.5222 7.1318 22.9999 11.1402 22.9999C15.1485 22.9999 18.8084 20.5222 20.3049 16.8156C21.4942 16.2755 22.2803 15.0673 22.2803 13.7515C22.2807 12.6282 21.7107 11.5722 20.7804 10.9521ZM19.8274 16.106C19.7164 16.1489 19.6289 16.2372 19.5865 16.3478C18.2577 19.8243 14.8635 22.16 11.141 22.16C7.4185 22.16 4.02433 19.8239 2.6955 16.3478C2.65304 16.2368 2.56518 16.1485 2.45462 16.106C1.48984 15.7327 0.841607 14.7869 0.841607 13.7523C0.841607 12.8615 1.31916 12.0275 2.08762 11.576C2.19062 11.5155 2.26292 11.4146 2.28646 11.2977C3.14278 7.11783 6.86654 4.0835 11.1406 4.0835C15.4146 4.0835 19.1384 7.11783 19.9947 11.2977C20.0186 11.4146 20.0909 11.5159 20.1935 11.576C20.9624 12.0275 21.4395 12.8615 21.4395 13.7523C21.44 14.7869 20.7921 15.7327 19.8274 16.106Z" fill="#4E4E4E"/>
<path d="M10.9304 14.5931C9.7983 14.5931 7.14694 14.5931 7.14694 17.1885C7.14694 19.3371 8.87976 21.1523 10.9304 21.1523C12.981 21.1523 14.7138 19.3375 14.7138 17.1885C14.7138 14.5931 12.0625 14.5931 10.9304 14.5931ZM10.9304 20.3115C9.36278 20.3115 7.98771 18.852 7.98771 17.1885C7.98771 15.9093 8.78517 15.4338 10.9304 15.4338C13.0756 15.4338 13.8731 15.9093 13.8731 17.1885C13.8731 18.852 12.498 20.3115 10.9304 20.3115Z" fill="#4E4E4E"/>
<path d="M10.9304 16.2746C10.003 16.2746 9.24884 17.0288 9.24884 17.9561C9.24884 18.8835 10.003 19.6377 10.9304 19.6377C11.8577 19.6377 12.6119 18.8835 12.6119 17.9561C12.6119 17.0288 11.8577 16.2746 10.9304 16.2746ZM10.9304 18.7969C10.4667 18.7969 10.0896 18.4198 10.0896 17.9561C10.0896 17.4924 10.4667 17.1154 10.9304 17.1154C11.3941 17.1154 11.7711 17.4924 11.7711 17.9561C11.7711 18.4198 11.3941 18.7969 10.9304 18.7969Z" fill="#4E4E4E"/>
<path d="M14.2934 9.96887C13.1344 9.96887 12.1915 10.9118 12.1915 12.0708C12.1915 12.3033 12.3799 12.4912 12.6119 12.4912C12.844 12.4912 13.0323 12.3033 13.0323 12.0708C13.0323 11.3755 13.5981 10.8096 14.2934 10.8096C14.9888 10.8096 15.5546 11.3755 15.5546 12.0708C15.5546 12.3033 15.7429 12.4912 15.975 12.4912C16.207 12.4912 16.3954 12.3033 16.3954 12.0708C16.3954 10.9118 15.4524 9.96887 14.2934 9.96887Z" fill="#4E4E4E"/>
<path d="M9.24884 12.0708C9.24884 12.3033 9.43717 12.4912 9.66922 12.4912C9.90127 12.4912 10.0896 12.3033 10.0896 12.0708C10.0896 10.9118 9.14668 9.96887 7.98769 9.96887C6.82869 9.96887 5.88577 10.9118 5.88577 12.0708C5.88577 12.3033 6.0741 12.4912 6.30616 12.4912C6.53821 12.4912 6.72654 12.3033 6.72654 12.0708C6.72654 11.3755 7.29237 10.8096 7.98769 10.8096C8.683 10.8096 9.24884 11.3755 9.24884 12.0708Z" fill="#4E4E4E"/>
</svg>
