<svg width="42" height="42" viewBox="0 0 42 42" fill="none" xmlns="http://www.w3.org/2000/svg">
<circle cx="21" cy="21" r="21" fill="#477B87"/>
<path d="M33.5833 14.8333V9H9.41664V14.8333H8.99997V30.3579C8.99997 31.4471 9.88622 32.3333 10.9754 32.3333H32.0246C33.1137 32.3333 34 31.4471 34 30.3579V14.8333H33.5833ZM32.5416 14.8333L30.3833 11.9558L32.5058 9.83333H32.75V14.8333H32.5416ZM30.25 13.1663L31.5 14.8333H30.25V13.1663ZM15.25 9.83333H17.75H20.25H22.75H25.25H27.75H30.25H31.3275L29.5391 11.6217C29.5254 11.6354 29.5183 11.6542 29.5066 11.6696C29.4912 11.69 29.4758 11.7092 29.4646 11.7321C29.46 11.7413 29.4529 11.7483 29.4487 11.7579C29.4416 11.7746 29.4421 11.7925 29.4375 11.81C29.4304 11.8363 29.4241 11.8613 29.4225 11.8883C29.4216 11.8975 29.4166 11.9067 29.4166 11.9167V14V14.8333H13.5833V14V11.9167C13.5833 11.9067 13.5783 11.8975 13.5779 11.8879C13.5758 11.8608 13.5696 11.8358 13.5629 11.8096C13.5583 11.7921 13.5587 11.7742 13.5516 11.7575C13.5479 11.7479 13.5404 11.7408 13.5358 11.7317C13.5246 11.7092 13.5091 11.69 13.4937 11.6696C13.4821 11.6542 13.4746 11.6354 13.4608 11.6217L11.6725 9.83333H12.75H15.25ZM11.5 14.8333L12.75 13.1663V14.8333H11.5ZM10.25 9.83333H10.4941L12.6166 11.9558L10.4583 14.8333H10.25V9.83333ZM33.1666 30.3579C33.1666 30.9879 32.6546 31.5 32.0246 31.5H10.9754C10.3454 31.5 9.8333 30.9879 9.8333 30.3579V15.6667H33.1666V30.3579Z" fill="white"/>
<path d="M26.5 18.1667C26.2696 18.1667 26.0833 18.3529 26.0833 18.5834V21.0834C26.0833 23.6104 24.0271 25.6667 21.5 25.6667C18.9729 25.6667 16.9166 23.6104 16.9166 21.0834V18.5834C16.9166 18.3529 16.7304 18.1667 16.5 18.1667C16.2696 18.1667 16.0833 18.3529 16.0833 18.5834V21.0834C16.0833 24.07 18.5133 26.5 21.5 26.5C24.4866 26.5 26.9166 24.07 26.9166 21.0834V18.5834C26.9166 18.3529 26.7304 18.1667 26.5 18.1667Z" fill="white"/>
<path d="M17.3333 18.5834C17.3333 18.8138 17.5196 19 17.75 19C17.9804 19 18.1666 18.8138 18.1666 18.5834C18.1666 17.6642 17.4191 16.9167 16.5 16.9167C15.5808 16.9167 14.8333 17.6642 14.8333 18.5834C14.8333 18.8138 15.0196 19 15.25 19C15.4804 19 15.6666 18.8138 15.6666 18.5834C15.6666 18.1238 16.0404 17.75 16.5 17.75C16.9596 17.75 17.3333 18.1238 17.3333 18.5834Z" fill="white"/>
<path d="M26.5 16.9167C25.5808 16.9167 24.8333 17.6642 24.8333 18.5834C24.8333 18.8138 25.0196 19 25.25 19C25.4804 19 25.6666 18.8138 25.6666 18.5834C25.6666 18.1238 26.0404 17.75 26.5 17.75C26.9596 17.75 27.3333 18.1238 27.3333 18.5834C27.3333 18.8138 27.5196 19 27.75 19C27.9804 19 28.1666 18.8138 28.1666 18.5834C28.1666 17.6642 27.4191 16.9167 26.5 16.9167Z" fill="white"/>
<path d="M19 11.9166C19.2301 11.9166 19.4166 11.7301 19.4166 11.5C19.4166 11.2699 19.2301 11.0833 19 11.0833C18.7699 11.0833 18.5833 11.2699 18.5833 11.5C18.5833 11.7301 18.7699 11.9166 19 11.9166Z" fill="white"/>
<path d="M20.25 10.6666C20.4801 10.6666 20.6666 10.4801 20.6666 10.25C20.6666 10.0199 20.4801 9.83331 20.25 9.83331C20.0199 9.83331 19.8333 10.0199 19.8333 10.25C19.8333 10.4801 20.0199 10.6666 20.25 10.6666Z" fill="white"/>
<path d="M20.25 13.1666C20.4801 13.1666 20.6666 12.9801 20.6666 12.75C20.6666 12.5199 20.4801 12.3333 20.25 12.3333C20.0199 12.3333 19.8333 12.5199 19.8333 12.75C19.8333 12.9801 20.0199 13.1666 20.25 13.1666Z" fill="white"/>
<path d="M21.5 11.9166C21.7301 11.9166 21.9166 11.7301 21.9166 11.5C21.9166 11.2699 21.7301 11.0833 21.5 11.0833C21.2699 11.0833 21.0833 11.2699 21.0833 11.5C21.0833 11.7301 21.2699 11.9166 21.5 11.9166Z" fill="white"/>
<path d="M16.5 11.9166C16.7301 11.9166 16.9166 11.7301 16.9166 11.5C16.9166 11.2699 16.7301 11.0833 16.5 11.0833C16.2699 11.0833 16.0833 11.2699 16.0833 11.5C16.0833 11.7301 16.2699 11.9166 16.5 11.9166Z" fill="white"/>
<path d="M17.75 10.6666C17.9801 10.6666 18.1666 10.4801 18.1666 10.25C18.1666 10.0199 17.9801 9.83331 17.75 9.83331C17.5199 9.83331 17.3333 10.0199 17.3333 10.25C17.3333 10.4801 17.5199 10.6666 17.75 10.6666Z" fill="white"/>
<path d="M17.75 13.1666C17.9801 13.1666 18.1666 12.9801 18.1666 12.75C18.1666 12.5199 17.9801 12.3333 17.75 12.3333C17.5199 12.3333 17.3333 12.5199 17.3333 12.75C17.3333 12.9801 17.5199 13.1666 17.75 13.1666Z" fill="white"/>
<path d="M14 11.9166C14.2301 11.9166 14.4166 11.7301 14.4166 11.5C14.4166 11.2699 14.2301 11.0833 14 11.0833C13.7699 11.0833 13.5833 11.2699 13.5833 11.5C13.5833 11.7301 13.7699 11.9166 14 11.9166Z" fill="white"/>
<path d="M12.75 10.6666C12.9801 10.6666 13.1666 10.4801 13.1666 10.25C13.1666 10.0199 12.9801 9.83331 12.75 9.83331C12.5199 9.83331 12.3333 10.0199 12.3333 10.25C12.3333 10.4801 12.5199 10.6666 12.75 10.6666Z" fill="white"/>
<path d="M15.25 10.6666C15.4801 10.6666 15.6666 10.4801 15.6666 10.25C15.6666 10.0199 15.4801 9.83331 15.25 9.83331C15.0199 9.83331 14.8333 10.0199 14.8333 10.25C14.8333 10.4801 15.0199 10.6666 15.25 10.6666Z" fill="white"/>
<path d="M15.25 13.1666C15.4801 13.1666 15.6666 12.9801 15.6666 12.75C15.6666 12.5199 15.4801 12.3333 15.25 12.3333C15.0199 12.3333 14.8333 12.5199 14.8333 12.75C14.8333 12.9801 15.0199 13.1666 15.25 13.1666Z" fill="white"/>
<path d="M29 11.9166C29.2301 11.9166 29.4166 11.7301 29.4166 11.5C29.4166 11.2699 29.2301 11.0833 29 11.0833C28.7699 11.0833 28.5833 11.2699 28.5833 11.5C28.5833 11.7301 28.7699 11.9166 29 11.9166Z" fill="white"/>
<path d="M30.25 10.6666C30.4801 10.6666 30.6666 10.4801 30.6666 10.25C30.6666 10.0199 30.4801 9.83331 30.25 9.83331C30.0199 9.83331 29.8333 10.0199 29.8333 10.25C29.8333 10.4801 30.0199 10.6666 30.25 10.6666Z" fill="white"/>
<path d="M22.75 10.6666C22.9801 10.6666 23.1666 10.4801 23.1666 10.25C23.1666 10.0199 22.9801 9.83331 22.75 9.83331C22.5199 9.83331 22.3333 10.0199 22.3333 10.25C22.3333 10.4801 22.5199 10.6666 22.75 10.6666Z" fill="white"/>
<path d="M22.75 13.1666C22.9801 13.1666 23.1666 12.9801 23.1666 12.75C23.1666 12.5199 22.9801 12.3333 22.75 12.3333C22.5199 12.3333 22.3333 12.5199 22.3333 12.75C22.3333 12.9801 22.5199 13.1666 22.75 13.1666Z" fill="white"/>
<path d="M24 11.9166C24.2301 11.9166 24.4166 11.7301 24.4166 11.5C24.4166 11.2699 24.2301 11.0833 24 11.0833C23.7699 11.0833 23.5833 11.2699 23.5833 11.5C23.5833 11.7301 23.7699 11.9166 24 11.9166Z" fill="white"/>
<path d="M26.5 11.9166C26.7301 11.9166 26.9166 11.7301 26.9166 11.5C26.9166 11.2699 26.7301 11.0833 26.5 11.0833C26.2699 11.0833 26.0833 11.2699 26.0833 11.5C26.0833 11.7301 26.2699 11.9166 26.5 11.9166Z" fill="white"/>
<path d="M19 14.4166C19.2301 14.4166 19.4166 14.2301 19.4166 14C19.4166 13.7699 19.2301 13.5833 19 13.5833C18.7699 13.5833 18.5833 13.7699 18.5833 14C18.5833 14.2301 18.7699 14.4166 19 14.4166Z" fill="white"/>
<path d="M21.5 14.4166C21.7301 14.4166 21.9166 14.2301 21.9166 14C21.9166 13.7699 21.7301 13.5833 21.5 13.5833C21.2699 13.5833 21.0833 13.7699 21.0833 14C21.0833 14.2301 21.2699 14.4166 21.5 14.4166Z" fill="white"/>
<path d="M16.5 14.4166C16.7301 14.4166 16.9166 14.2301 16.9166 14C16.9166 13.7699 16.7301 13.5833 16.5 13.5833C16.2699 13.5833 16.0833 13.7699 16.0833 14C16.0833 14.2301 16.2699 14.4166 16.5 14.4166Z" fill="white"/>
<path d="M14 14.4166C14.2301 14.4166 14.4166 14.2301 14.4166 14C14.4166 13.7699 14.2301 13.5833 14 13.5833C13.7699 13.5833 13.5833 13.7699 13.5833 14C13.5833 14.2301 13.7699 14.4166 14 14.4166Z" fill="white"/>
<path d="M29 14.4166C29.2301 14.4166 29.4166 14.2301 29.4166 14C29.4166 13.7699 29.2301 13.5833 29 13.5833C28.7699 13.5833 28.5833 13.7699 28.5833 14C28.5833 14.2301 28.7699 14.4166 29 14.4166Z" fill="white"/>
<path d="M24 14.4166C24.2301 14.4166 24.4166 14.2301 24.4166 14C24.4166 13.7699 24.2301 13.5833 24 13.5833C23.7699 13.5833 23.5833 13.7699 23.5833 14C23.5833 14.2301 23.7699 14.4166 24 14.4166Z" fill="white"/>
<path d="M26.5 14.4166C26.7301 14.4166 26.9166 14.2301 26.9166 14C26.9166 13.7699 26.7301 13.5833 26.5 13.5833C26.2699 13.5833 26.0833 13.7699 26.0833 14C26.0833 14.2301 26.2699 14.4166 26.5 14.4166Z" fill="white"/>
<path d="M25.25 10.6666C25.4801 10.6666 25.6666 10.4801 25.6666 10.25C25.6666 10.0199 25.4801 9.83331 25.25 9.83331C25.0199 9.83331 24.8333 10.0199 24.8333 10.25C24.8333 10.4801 25.0199 10.6666 25.25 10.6666Z" fill="white"/>
<path d="M27.75 10.6666C27.9801 10.6666 28.1666 10.4801 28.1666 10.25C28.1666 10.0199 27.9801 9.83331 27.75 9.83331C27.5199 9.83331 27.3333 10.0199 27.3333 10.25C27.3333 10.4801 27.5199 10.6666 27.75 10.6666Z" fill="white"/>
<path d="M25.25 13.1666C25.4801 13.1666 25.6666 12.9801 25.6666 12.75C25.6666 12.5199 25.4801 12.3333 25.25 12.3333C25.0199 12.3333 24.8333 12.5199 24.8333 12.75C24.8333 12.9801 25.0199 13.1666 25.25 13.1666Z" fill="white"/>
<path d="M27.75 13.1666C27.9801 13.1666 28.1666 12.9801 28.1666 12.75C28.1666 12.5199 27.9801 12.3333 27.75 12.3333C27.5199 12.3333 27.3333 12.5199 27.3333 12.75C27.3333 12.9801 27.5199 13.1666 27.75 13.1666Z" fill="white"/>
</svg>
