<svg width="25" height="23" viewBox="0 0 25 23" fill="none" xmlns="http://www.w3.org/2000/svg">
<path d="M24.3681 0.208897C24.246 0.0749912 24.0731 0 23.892 0H14.6624C14.4812 0 14.3084 0.0749912 14.1863 0.208897C14.0637 0.34216 14.003 0.520733 14.0182 0.701682L14.0938 1.59134H24.4606L24.5361 0.701682C24.5513 0.520733 24.4909 0.342209 24.3681 0.208897Z" fill="#4E4E4E"/>
<path d="M23.8117 3.31589L22.6037 17.5163H15.9514L14.7427 3.31589H23.8117Z" stroke="#4E4E4E"/>
<path d="M15.5641 21.4006C15.5641 22.284 16.28 23 17.1632 23H21.3918C22.2752 23 22.991 22.284 22.991 21.4006V19.358H15.5641V21.4006Z" fill="#4E4E4E"/>
<path d="M2.10806 20.1729V19.012L5.01512 17.6936H13.0566C13.0739 17.6936 13.0876 17.7074 13.0876 17.7244V17.7245V20.1729C13.0876 21.4584 12.0455 22.5 10.7605 22.5H4.43512C3.15018 22.5 2.10806 21.4584 2.10806 20.1729Z" stroke="#4E4E4E"/>
<path d="M10.645 14.5921L7.354 16.0846H11.6096C11.745 16.0846 11.8703 16.0135 11.9413 15.8987C12.0114 15.7823 12.017 15.6389 11.9557 15.5178C11.7435 15.1047 11.3696 14.7987 10.9231 14.6711L10.645 14.5921Z" fill="#4E4E4E"/>
<path d="M11.1767 12.3877C11.2261 12.2554 11.2213 12.1095 11.1631 11.9812L11.0212 11.6703C10.8123 11.2094 10.358 10.9367 9.88283 10.9367C9.71058 10.9367 9.53518 10.9733 9.36783 11.0484L0.733495 14.9636C0.10532 15.2483 -0.17293 15.989 0.111602 16.6172L0.25278 16.9289C0.311051 17.0564 0.41775 17.157 0.54948 17.2064C0.609087 17.2286 0.672899 17.2399 0.735919 17.2399C0.811702 17.2399 0.886743 17.224 0.956045 17.1929L10.8985 12.6844C11.0269 12.6262 11.1265 12.52 11.1767 12.3877Z" fill="#4E4E4E"/>
</svg>
