<svg width="34" height="34" viewBox="0 0 34 34" fill="none" xmlns="http://www.w3.org/2000/svg">
<circle cx="17" cy="17" r="15.5" stroke="#FD9C00" stroke-width="3"/>
<path d="M20.5556 8.99998H25H20.5556ZM25 8.99998V13.4444V8.99998ZM25 8.99998L19.6667 14.3333L25 8.99998ZM10.7778 8.99998C10.3063 8.99998 9.8541 9.18729 9.5207 9.52068C9.1873 9.85408 9 10.3063 9 10.7778V11.6667C9 19.0302 14.9698 25 22.3333 25H23.2222C23.6937 25 24.1459 24.8127 24.4793 24.4793C24.8127 24.1459 25 23.6937 25 23.2222V20.3067C24.9999 20.1202 24.9411 19.9385 24.832 19.7872C24.7228 19.636 24.5689 19.5229 24.392 19.464L20.3982 18.1324C20.1953 18.065 19.9748 18.0729 19.7772 18.1549C19.5796 18.2369 19.4183 18.3873 19.3227 18.5787L18.3182 20.5849C16.1416 19.6013 14.3983 17.8577 13.4151 15.6809L15.4213 14.6782C15.6127 14.5826 15.7631 14.4212 15.8451 14.2237C15.927 14.0261 15.935 13.8056 15.8676 13.6027L14.536 9.6071C14.4769 9.43019 14.3636 9.27637 14.2122 9.16741C14.0608 9.05845 13.879 8.99988 13.6924 8.99998H10.7778Z" stroke="#FD9C00" stroke-width="2" stroke-linecap="round" stroke-linejoin="round"/>
</svg>
