<svg width="30" height="30" viewBox="0 0 30 30" fill="none" xmlns="http://www.w3.org/2000/svg">
<path d="M28.2814 21.4511C29.6722 23.4035 29.4502 26.0546 27.7524 27.7524C26.0504 29.4666 23.3674 29.6544 21.4511 28.2813L20.7785 27.8047L19.44 29.1368C18.2908 30.2859 16.438 30.2877 15.287 29.1368L3.2263 17.0761L0.862504 14.7123C-0.286552 13.5633 -0.288369 11.7102 0.862504 10.5593L2.1946 9.22074L1.71784 8.54816C0.327028 6.59568 0.549034 3.94455 2.24681 2.24678C3.96433 0.517071 6.67136 0.373109 8.54813 1.71786L9.22071 2.19457L10.5593 0.862473C11.7085 -0.286641 13.5613 -0.288341 14.7123 0.862473L29.1367 15.2869C30.2858 16.436 30.2876 18.289 29.1367 19.4399L27.8046 20.7785L28.2814 21.4511Z" fill="#FF9F19"/>
<path d="M1.71785 8.54809L2.19462 9.22067L0.862517 10.5593C-0.288414 11.7101 -0.286597 13.5631 0.862517 14.7122L3.22631 17.076L15.287 29.1367C16.438 30.2876 18.2908 30.2858 19.44 29.1367L20.7786 27.8046L21.4511 28.2813C23.3675 29.6544 26.0503 29.4665 27.7525 27.7523L2.24682 2.24677C0.549048 3.94454 0.327041 6.59567 1.71785 8.54809Z" fill="#F28618"/>
<path d="M16.6716 27.751L2.2473 13.3273C1.85953 12.9395 1.86024 12.3322 2.24794 11.9444C4.24963 9.9326 9.8274 4.35448 11.9413 2.25107C12.3364 1.85528 12.9487 1.86864 13.3276 2.2482L27.7519 16.6719C28.1397 17.0597 28.139 17.667 27.7513 18.0547C25.7726 20.0437 20.1846 25.632 18.0579 27.7481C17.6628 28.1439 17.0506 28.1306 16.6716 27.751Z" fill="#FFDFB3"/>
<path d="M7.09236 7.09229C5.16995 9.01459 3.25573 10.9315 2.24794 11.9444C1.86018 12.3322 1.85959 12.9395 2.2473 13.3273L16.6716 27.751C17.0506 28.1306 17.6628 28.144 18.0579 27.7482C19.1114 26.7 21.0142 24.7996 22.9069 22.9069L7.09236 7.09229Z" fill="#FFCC99"/>
<path d="M10.5078 19.323C8.88749 19.323 7.5694 18.005 7.5694 16.3846C7.5694 14.7643 8.88749 13.4462 10.5078 13.4462C12.1281 13.4462 13.4462 14.7643 13.4462 16.3846C13.4462 18.005 12.1281 19.323 10.5078 19.323ZM10.5078 15.4051C9.9677 15.4051 9.52832 15.8445 9.52832 16.3846C9.52832 16.9247 9.9677 17.3641 10.5078 17.3641C11.0479 17.3641 11.4873 16.9247 11.4873 16.3846C11.4873 15.8445 11.0479 15.4051 10.5078 15.4051Z" fill="#99522E"/>
<path d="M22.2616 19.323C20.6413 19.323 19.3232 18.0049 19.3232 16.3846C19.3232 14.7643 20.6413 13.4462 22.2616 13.4462C23.8819 13.4462 25.2 14.7643 25.2 16.3846C25.2 18.0049 23.8819 19.323 22.2616 19.323ZM22.2616 15.4051C21.7215 15.4051 21.2821 15.8445 21.2821 16.3846C21.2821 16.9247 21.7215 17.3641 22.2616 17.3641C22.8017 17.3641 23.2411 16.9247 23.2411 16.3846C23.2411 15.8445 22.8016 15.4051 22.2616 15.4051Z" fill="#A6673A"/>
<path d="M16.3847 24.2204C15.844 24.2204 15.4052 23.782 15.4052 23.2409V9.52826C15.4052 8.98721 15.844 8.54877 16.3847 8.54877C16.9255 8.54877 17.3642 8.98716 17.3642 9.52826V23.2409C17.3641 23.782 16.9254 24.2204 16.3847 24.2204Z" fill="#A6673A"/>
<path d="M15.4052 15.4052V23.241C15.4052 23.782 15.844 24.2204 16.3847 24.2204C16.9255 24.2204 17.3642 23.7821 17.3642 23.241V17.3641L15.4052 15.4052Z" fill="#99522E"/>
<path d="M5.99498 14.3075L3.22632 17.0761L1.84201 15.6918L4.61074 12.9232C4.99587 12.5379 5.60974 12.5379 5.99498 12.9232C6.38029 13.3018 6.38029 13.9222 5.99498 14.3075Z" fill="#99522E"/>
<path d="M7.38129 11.5367C6.99868 11.1544 6.99868 10.5342 7.38129 10.1516L10.1514 7.38119C10.534 6.99859 11.1538 6.99859 11.5364 7.38119C11.919 7.76345 11.919 8.38365 11.5364 8.76626L8.76635 11.5367C8.38369 11.9193 7.76389 11.9193 7.38129 11.5367Z" fill="#A6673A"/>
<path d="M8.76641 8.76636L7.38129 10.1517C6.99868 10.5343 6.99868 11.1544 7.38129 11.5367C7.76389 11.9193 8.38374 11.9193 8.76635 11.5367L10.1515 10.1514L8.76641 8.76636Z" fill="#99522E"/>
<path d="M17.0761 3.22628L14.3074 5.99501C13.9263 6.37621 13.3059 6.3778 12.9232 5.99501C12.5379 5.61627 12.5379 4.99595 12.9232 4.61071L15.6919 1.84198L17.0761 3.22628Z" fill="#A6673A"/>
</svg>
