<svg width="42" height="42" viewBox="0 0 42 42" fill="none" xmlns="http://www.w3.org/2000/svg">
<circle cx="21" cy="21" r="21" fill="#3F68A5"/>
<path d="M8.38306 11.4587C7.53732 12.1049 7.10198 13.9097 7.01129 16.4628C6.92059 19.0159 7.40128 20.4036 7.56907 20.823C7.73685 21.2425 8.99753 21.8683 10.4169 22.9657C11.4577 23.7707 19.6294 29.4596 20.5976 29.9017C22.1371 30.6024 23.1166 29.1852 23.1166 29.1852C23.1166 29.1852 23.9329 29.6523 24.722 29.1852C25.6856 28.6138 25.5722 27.9041 25.5722 27.9041C25.5722 27.9041 26.5654 28.1332 27.071 27.6865C27.5766 27.2398 27.8011 26.1673 27.8011 26.1673C27.8011 26.1673 28.47 26.4711 29.0368 25.9655C29.6037 25.4599 30.0345 24.7751 29.4336 23.841C28.8328 22.9068 26.3885 19.9637 25.7536 19.1384C25.1188 18.313 23.4862 13.6059 21.9149 13.1366C20.3436 12.6672 18.7927 12.7874 17.1511 13.2726C15.5095 13.7578 13.9745 13.7125 12.1515 13.1955C10.3285 12.6785 8.38306 11.4587 8.38306 11.4587Z" fill="#FFCA28"/>
<path d="M34.0523 15.4606C33.7168 13.2273 33.2746 11.7081 32.9458 11.3408C32.5695 10.9236 31.9232 11.7534 30.556 12.2387C29.1888 12.7239 26.7264 12.9076 26.7264 12.9076C26.7264 12.9076 22.7652 12.7919 21.2823 13.2907C20.7245 13.4767 15.2216 15.7962 15.056 16.7689C14.9858 17.1816 15.4438 18.1044 16.582 18.1974C18.4299 18.3493 20.7404 16.7395 20.7404 16.7395C20.7676 16.6941 21.042 16.617 22.3049 16.617C23.5679 16.617 25.0349 17.4446 25.1278 17.5988C26.0711 19.152 26.9667 20.2403 27.8306 21.2924C28.4632 22.0611 29.9506 24.0949 29.9506 24.0949C29.9506 24.0949 31.6217 22.12 32.048 21.6643C32.4742 21.2085 34.0546 20.0544 34.0546 20.0544C34.0546 20.0544 34.4038 17.7961 34.0523 15.4606Z" fill="#FFCA28"/>
<path d="M12.122 25.6254C12.122 25.6254 11.5189 25.8386 10.9679 25.0472C10.417 24.2559 10.8772 23.7117 11.4396 23.2696C12.0019 22.8275 12.7456 22.6143 13.1877 22.9499C13.6276 23.2832 13.8113 23.8614 13.8113 23.8614C13.8113 23.8614 14.7228 23.1177 15.5436 23.5734C16.3643 24.0292 16.3122 24.8591 16.3122 24.8591C16.3122 24.8591 17.1081 24.3761 17.9447 24.8591C18.7814 25.342 18.371 26.7342 18.371 26.7342C18.371 26.7342 19.3437 26.7637 19.5251 27.7228C19.7065 28.6796 19.4798 29.6977 18.3846 29.8813C17.2917 30.0627 16.6523 29.0379 16.6523 29.0379C16.6523 29.0379 15.5594 29.6977 14.7522 29.1535C13.945 28.6093 14.038 27.4666 14.038 27.4666C14.038 27.4666 13.0517 27.6298 12.4962 27.1128C11.9406 26.5959 12.122 25.6254 12.122 25.6254Z" fill="#FFCA28"/>
<path d="M19.7632 29.124C20.0398 28.6116 20.1078 28.0221 19.9264 27.5368C19.7949 27.1831 19.4797 26.7387 18.7451 26.5233C18.7519 26.5097 18.7587 26.4984 18.7655 26.487L18.7451 26.4757C18.8426 26.1787 18.8653 25.8952 18.8199 25.5551C18.7474 25.02 18.439 24.6187 17.9515 24.4305C17.5388 24.2695 17.04 24.2831 16.641 24.4464C16.5979 23.9815 16.3757 23.6505 15.9471 23.3898C15.09 22.8683 14.4506 23.2084 14.0584 23.4351C13.8838 22.934 13.4507 22.6869 13.1764 22.5758C12.8499 22.4442 12.0517 22.2742 11.1017 23.1222L11.5869 23.5666C12.2422 23.0088 12.7319 23.0995 12.9337 23.1812C13.4553 23.3898 13.4371 23.7775 13.4348 23.9566C13.4326 24.1335 13.4054 24.3217 12.9723 24.723C12.4372 25.2195 12.0585 25.2218 12.0585 25.2218C11.6753 25.2672 11.333 24.9769 11.1765 24.689C11.1221 24.5869 10.9611 24.2378 11.1742 23.9861C11.2241 23.9294 11.3262 23.7707 11.6731 23.4986L11.1947 23.0451C10.986 23.2174 10.7253 23.5077 10.6754 23.5643C10.3557 23.9407 10.3285 24.4917 10.6029 24.9996C10.8296 25.4236 11.2876 25.8227 11.8477 25.8771C11.8068 26.4213 11.9996 26.9246 12.41 27.3214C12.8499 27.7477 13.3963 27.7931 13.7772 27.759C13.7818 28.14 13.8656 28.6751 14.2375 29.0583C14.9767 29.8178 15.8995 29.6251 16.4981 29.3054C16.7135 29.743 17.1012 30.0559 17.5933 30.1716C17.7316 30.2033 17.8722 30.2192 18.0105 30.2192C18.5274 30.2192 19.1963 30.2192 19.8539 28.9336C19.6498 28.8066 19.4548 28.7068 19.2825 28.6048C18.7814 29.5979 18.117 29.6228 17.7406 29.5344C17.3983 29.4528 17.1466 29.2215 17.0309 28.8882C17.5774 28.276 17.9628 27.7931 18.3914 27.1106C18.8766 27.2126 19.1872 27.4325 19.312 27.7681C19.4208 28.0606 19.3777 28.437 19.2099 28.7726L19.7632 29.124ZM14.0221 27.0425C14.0153 27.0448 13.3169 27.2852 12.8635 26.8475C12.5619 26.5551 12.444 26.2013 12.5143 25.7977C13.3351 25.215 14.0448 24.3035 14.1922 24.1063C14.2443 24.079 14.9404 23.5281 15.607 23.9453C15.9154 24.138 16.0401 24.5824 15.9766 24.8953C15.9131 25.2082 15.768 25.5869 15.1694 26.2263C14.5844 26.8498 14.0221 27.0425 14.0221 27.0425ZM18.0513 26.4598C17.8994 26.7591 17.4277 27.7522 16.4482 28.5594C16.3371 28.6501 15.4007 29.3077 14.7069 28.5957C14.4574 28.3395 14.4189 27.8996 14.4325 27.6139C14.8973 27.2489 15.8224 26.4326 16.5389 25.2649C16.8178 24.9497 17.3597 24.8976 17.7157 25.0359C17.9787 25.1379 18.1329 25.3397 18.1714 25.639C18.21 25.9156 18.2032 26.1605 18.0513 26.4598Z" fill="#D69513"/>
<path d="M23.8581 29.6727C23.6404 29.6727 23.4273 29.6387 23.2277 29.5684C22.7153 29.3893 20.7313 27.8792 20.3912 27.3554C20.2937 27.2035 20.3368 27.0017 20.4865 26.9042C20.6384 26.8067 20.8402 26.8498 20.9377 26.9995C21.1735 27.3622 23.0237 28.8043 23.4431 28.9517C23.8195 29.0832 24.3025 29.0152 24.6698 28.7794C24.9033 28.6274 25.1936 28.3418 25.2367 27.8407C25.2525 27.6615 25.4112 27.5278 25.5904 27.5436C25.7695 27.5595 25.9033 27.7182 25.8874 27.8973C25.8353 28.4937 25.5292 29.0016 25.0258 29.3281C24.6775 29.5523 24.2723 29.6719 23.8581 29.6727Z" fill="#D69513"/>
<path d="M26.2366 28.1944C25.7899 28.1944 25.3092 28.0538 24.7288 27.7568C24.0145 27.394 23.0736 26.4621 22.3865 25.7842C22.2482 25.6481 22.1235 25.5234 22.0169 25.4214C21.8877 25.2967 21.8832 25.0903 22.0079 24.9588C22.1326 24.8273 22.3389 24.825 22.4704 24.9497C22.5793 25.054 22.7062 25.1788 22.8468 25.3193C23.4658 25.9315 24.4023 26.8566 25.0258 27.1741C25.8126 27.5754 26.2162 27.5709 26.5109 27.5142C27.0506 27.4076 27.3862 26.902 27.3839 26.19C27.3839 26.1034 27.4183 26.0204 27.4795 25.9591C27.5408 25.8979 27.6238 25.8635 27.7104 25.8635C27.797 25.8635 27.88 25.8979 27.9413 25.9591C28.0025 26.0204 28.0369 26.1034 28.0369 26.19C28.0392 27.2171 27.4882 27.9903 26.6356 28.1581C26.5041 28.1831 26.3704 28.1944 26.2366 28.1944Z" fill="#D69513"/>
<path d="M28.1117 26.5913C27.9372 26.5913 27.7603 26.5619 27.5902 26.4961C26.6719 26.1379 25.4475 25.0087 23.8468 23.0429C23.7957 22.9752 23.7728 22.8903 23.783 22.8061C23.7933 22.7219 23.8358 22.6449 23.9016 22.5914C23.9674 22.538 24.0514 22.5121 24.1359 22.5193C24.2205 22.5266 24.2989 22.5663 24.3547 22.6302C25.8602 24.4804 27.0279 25.5755 27.8283 25.8862C28.2297 26.0426 28.826 25.8159 29.1842 25.3715C29.352 25.1629 29.5924 24.7479 29.3021 24.3058C28.6605 23.3286 28.012 22.5395 27.325 21.7051C26.4452 20.6349 25.536 19.5284 24.5678 17.9367C24.4748 17.7825 24.5224 17.5807 24.6766 17.4877C24.8308 17.3948 25.0326 17.4424 25.1256 17.5966C26.0688 19.1497 26.9644 20.2381 27.8283 21.2902C28.5267 22.1382 29.1842 22.9408 29.8463 23.9476C30.2204 24.5144 30.1615 25.2014 29.6899 25.7841C29.3271 26.2308 28.7217 26.5913 28.1117 26.5913Z" fill="#D69513"/>
<path d="M28.6808 19.508C28.6672 19.508 28.6559 19.508 28.6423 19.5057C26.2434 19.2268 25.0394 18.2972 24.2435 17.6827C23.8512 17.3811 23.5429 17.1408 23.2481 17.0977C22.4137 16.9707 21.5884 16.8801 20.6996 17.1385C20.6157 17.1635 20.3663 17.2814 20.0987 17.4084C19.2802 17.7961 18.0444 18.3833 17.1352 18.4786C16.4278 18.5534 15.7952 18.3743 15.353 17.9775C14.9948 17.6555 14.7907 17.2111 14.7907 16.7576C14.7907 15.9618 15.7974 15.4924 16.4618 15.184C16.8268 15.014 17.3234 14.7351 17.8472 14.4403C18.7632 13.9256 19.8017 13.3406 20.5635 13.1003C21.8151 12.7058 25.1142 12.5879 26.1708 12.5765C28.5402 12.5538 30.4879 11.8895 31.9685 11.1277C32.0298 11.0959 32.2996 10.9553 32.5354 11.0143C32.8642 11.0959 32.9458 11.3431 32.9458 11.3431C31.3291 12.3067 29.1207 13.2046 26.1799 13.2341C24.8829 13.2454 21.8537 13.3837 20.7653 13.7261C20.067 13.946 19.0602 14.5129 18.1714 15.014C17.6363 15.3155 17.1307 15.6012 16.7407 15.7804C16.353 15.9595 15.446 16.3812 15.446 16.7621C15.446 17.0297 15.573 17.2973 15.7906 17.4968C16.0922 17.7689 16.5479 17.889 17.0672 17.8346C17.8653 17.7507 19.0874 17.1703 19.8198 16.8234C20.1894 16.6465 20.3889 16.5535 20.5182 16.5173C21.6179 16.1953 22.6586 16.3517 23.3456 16.456C23.8059 16.5263 24.1936 16.8256 24.6426 17.1703C25.4271 17.7757 26.4996 18.6033 28.7194 18.8618C28.8985 18.8822 29.0277 19.0454 29.0073 19.2245C28.9869 19.3855 28.8463 19.508 28.6808 19.508Z" fill="#D69513"/>
<path d="M29.8168 23.9044L29.4835 23.4147C29.7375 23.5507 30.3157 23.4464 31.048 22.4147C31.5128 21.7595 32.3813 20.4376 34.0319 19.7505C34.0319 19.7505 34.1566 20.3764 33.7848 20.6303C32.6647 21.4012 31.9595 22.2583 31.5809 22.7934C30.9596 23.6709 30.3882 24.1969 30.0617 24.4599C30.0617 24.4599 30.0209 24.1969 29.8168 23.9044Z" fill="#D69513"/>
<path d="M21.5612 30.3529C20.7472 30.3529 19.9604 29.9267 19.5636 29.7113C19.4979 29.675 19.4412 29.6455 19.3936 29.6206L19.8765 28.5186C19.8765 28.5186 19.9944 29.1762 20.4932 29.4346C21.314 29.8632 22.0509 29.9244 22.6495 29.1308L23.171 29.5253C22.7017 30.1489 22.1235 30.3529 21.5612 30.3529Z" fill="#D69513"/>
<path d="M10.7797 23.7503C10.0314 22.9612 9.11314 22.213 8.10187 21.56C8.05199 21.5282 7.77764 21.3514 7.64386 21.1133C7.43526 20.7437 7.48514 20.4285 7.48514 20.4285C8.92041 21.2267 10.2355 22.2266 11.2536 23.3013L10.7797 23.7503Z" fill="#D69513"/>
<path d="M15.0696 13.9528C12.3805 13.9528 9.89767 12.9234 8.11322 11.7262C8.11322 11.7262 8.20618 11.5381 8.38304 11.4587C8.63019 11.3476 8.82065 11.4088 8.84786 11.4247C10.5053 12.4541 12.7024 13.2976 15.0673 13.2976H15.0832C15.7612 13.2976 16.6727 13.0255 17.2168 12.8645C17.3189 12.835 17.4096 12.8078 17.4889 12.7851C18.8267 12.4065 20.2665 12.411 22.3026 12.7965L22.1802 13.4381C20.2506 13.0731 18.8993 13.0663 17.6658 13.4132C17.591 13.4336 17.5025 13.4608 17.4028 13.4903C16.8246 13.6626 15.8564 13.9506 15.0855 13.9506C15.0809 13.9528 15.0741 13.9528 15.0696 13.9528Z" fill="#D69513"/>
<path d="M27.105 20.4013C27.105 20.4013 26.9236 19.9229 27.2274 19.6531C27.5834 19.3356 27.9825 19.449 28.2591 19.4535C28.2591 19.4535 27.7217 19.313 27.037 19.0386C26.1867 18.6962 25.6017 18.2722 25.6017 18.2722C25.6017 18.2722 25.7536 18.576 26.2252 19.2903C26.6946 20.0045 27.105 20.4013 27.105 20.4013Z" fill="#D69513"/>
<path fill-rule="evenodd" clip-rule="evenodd" d="M28.7139 20.7357C28.6664 20.52 28.8028 20.3065 29.0185 20.259L30.2324 19.9916C30.4482 19.944 30.6616 20.0804 30.7091 20.2961L31.0401 21.7983C31.8354 21.9187 32.5476 22.3737 32.9911 23.0449L34.4933 22.7139C34.709 22.6664 34.9224 22.8028 34.97 23.0185L35.2374 24.2324C35.2849 24.4482 35.1486 24.6616 34.9328 24.7091L33.4306 25.0401C33.3103 25.8354 32.8552 26.5476 32.1841 26.991L32.5151 28.4932C32.5626 28.709 32.4262 28.9224 32.2105 28.9699L30.9966 29.2374C30.7808 29.2849 30.5674 29.1485 30.5199 28.9328L30.1889 27.4306C29.3935 27.3103 28.6814 26.8552 28.2379 26.1841L26.7357 26.515C26.52 26.5626 26.3066 26.4262 26.259 26.2105L25.9916 24.9965C25.9441 24.7808 26.0804 24.5674 26.2962 24.5198L27.7983 24.1889C27.9187 23.3935 28.3737 22.6813 29.0449 22.2379L28.7139 20.7357Z" fill="white"/>
</svg>
