<svg width="23" height="17" viewBox="0 0 23 17" fill="none" xmlns="http://www.w3.org/2000/svg">
<path d="M21.878 0.252899H1.12195C0.501886 0.252899 0 0.755533 0 1.37485V15.6259C0 16.2452 0.501886 16.7478 1.12195 16.7478H21.878C22.4981 16.7478 23 16.2452 23 15.6259V1.37485C23 0.755533 22.4981 0.252899 21.878 0.252899ZM20.7561 14.5009H2.2439V2.49531H20.7561V14.5009ZM4.76829 8.49999C4.76829 7.57101 5.5215 6.81706 6.45122 6.81706C7.38094 6.81706 8.13415 7.57101 8.13415 8.49999C8.13415 9.42896 7.38094 10.1829 6.45122 10.1829C5.5215 10.1829 4.76829 9.42822 4.76829 8.49999ZM9.81707 8.49999C9.81707 7.57101 10.5703 6.81706 11.5 6.81706C12.429 6.81706 13.1829 7.57101 13.1829 8.49999C13.1829 9.42896 12.429 10.1829 11.5 10.1829C10.5703 10.1822 9.81707 9.42822 9.81707 8.49999ZM14.8659 8.49999C14.8659 7.57101 15.6191 6.81706 16.5488 6.81706C17.4778 6.81706 18.2317 7.57101 18.2317 8.49999C18.2317 9.42896 17.4778 10.1829 16.5488 10.1829C15.6191 10.1822 14.8659 9.42822 14.8659 8.49999Z" fill="#D9C29E"/>
</svg>
