<svg width="23" height="23" viewBox="0 0 23 23" fill="none" xmlns="http://www.w3.org/2000/svg">
<path d="M21.6023 4.47722C21.9075 4.27861 22.2513 4.05236 22.6612 4.05236C22.775 4.05236 22.8875 4.06972 23 4.10539C22.9261 3.74402 22.6209 3.47342 22.3238 3.21014C22.0697 2.98459 21.8293 2.77252 21.7225 2.50422L21.7113 2.47516H21.7116C21.7116 2.47516 22.7 1.4221 22.1707 0.516746C21.6412 -0.388433 21.4149 0.0832024 21.3392 0.516746C21.2639 0.950466 20.4373 -0.230985 20.3063 0.478594C20.1749 1.18823 18.8066 0.653937 19.1598 1.49073C19.1598 1.49073 19.2418 1.69654 19.4664 1.88506C18.176 2.08668 17.4556 2.66048 16.747 3.81884C16.5494 4.14195 16.2488 4.88933 16.0372 5.43774C15.0288 8.04283 14.2449 8.34568 12.889 8.34568C12.2629 8.34568 11.636 8.17211 11.0242 7.90151C10.7386 7.73408 8.54242 6.40906 7.96865 4.97136C7.35515 3.43278 4.63647 0.532632 1.83008 1.80509C-0.976542 3.07767 -0.438663 4.03748 2.64839 4.91218C5.57183 5.74058 -0.187112 5.82941 1.8886 7.72333C3.96409 9.61672 1.71268 9.55779 4.51965 11.7773C7.11545 13.8296 6.09693 14.852 7.40504 15.7513C7.40399 15.753 7.40277 15.7548 7.40172 15.757C7.42657 15.7733 7.45587 15.786 7.48177 15.8024C7.56866 15.858 7.664 15.9138 7.77102 15.9684C7.77102 15.9684 7.77785 15.9691 7.77925 15.9691C8.14627 16.1443 8.56949 16.2719 9.00771 16.4003C9.4709 16.5372 10.4179 16.8093 10.4179 16.8093C11.6284 16.9415 13.411 15.4932 14.1086 14.4357C15.1868 12.7314 14.3931 11.3632 13.8084 9.54095L14.0781 9.45426C14.6349 11.2143 15.5193 12.7381 14.3455 14.5925C13.6605 15.6333 12.0582 16.9657 10.7698 17.0933C10.812 17.1195 11.336 17.4604 11.7955 17.7133C12.2312 17.953 12.549 18.3675 12.6703 18.8544C12.7698 19.2551 12.9022 19.6459 13.0781 20.0133C13.1723 20.2105 13.1755 20.44 13.0854 20.6389C12.9958 20.8382 12.8234 20.9878 12.6142 21.0446C12.2438 21.146 11.856 21.2883 11.5566 21.5525C11.4644 21.635 11.4173 21.7568 11.4306 21.8801C11.4443 22.0036 11.5162 22.1128 11.6237 22.1724C11.7853 22.2614 11.9839 22.2443 12.1283 22.1284C12.5053 21.8248 13.2007 21.7964 13.795 21.5645C14.0066 21.4822 14.246 21.5092 14.4341 21.6365C14.5013 21.6819 14.5718 21.7252 14.6523 21.7674C14.9607 21.9284 15.2217 22.1582 15.4232 22.444C15.48 22.5242 15.5273 22.6015 15.563 22.6745C15.6507 22.8539 15.8272 22.9724 16.0249 22.9848L16.2782 22.9997C16.3227 23.0025 16.3658 22.9856 16.3966 22.9529C16.4271 22.9199 16.4421 22.8756 16.4372 22.8309C16.4221 22.6852 16.3784 22.5384 16.3153 22.3951C16.2929 22.344 16.2978 22.2859 16.3275 22.2394C16.3574 22.1929 16.4085 22.1653 16.4635 22.1653C17.4046 22.167 18.0424 22.4001 18.3717 22.5618C18.5458 22.6476 18.7529 22.6292 18.9092 22.5146L18.9715 22.4685C19.0535 22.4089 19.1005 22.3121 19.098 22.21C19.0959 22.1079 19.0437 22.0135 18.9593 21.9578C18.0875 21.3826 16.6074 21.3383 15.8825 21.146C14.7077 20.8297 14.1211 19.3771 14.194 18.4313C14.1947 18.4321 14.195 18.4321 14.1957 18.4321L14.1953 18.4267L14.3383 18.4186C15.2853 18.3661 15.8747 17.5019 16.4189 16.6486C17.3789 15.1432 17.8366 15.1258 17.8366 15.1258C20.3302 14.8677 21.7303 12.7714 22.1144 8.7194C22.2282 7.5236 21.8789 6.81331 21.5085 6.06056C21.3375 5.71159 21.1596 5.35134 21.0194 4.92949L20.9727 4.78851L21.1129 4.74558C21.2625 4.70081 21.4282 4.59191 21.6023 4.47722ZM20.1535 3.31154C19.9604 3.31154 19.8046 3.15285 19.8046 2.95819C19.8046 2.76313 19.9612 2.60515 20.1535 2.60515C20.3455 2.60515 20.5018 2.76348 20.5018 2.95819C20.5018 3.15291 20.3462 3.31154 20.1535 3.31154Z" fill="#4E4E4E"/>
</svg>
