<svg width="42" height="42" viewBox="0 0 42 42" fill="none" xmlns="http://www.w3.org/2000/svg">
<circle cx="21" cy="21" r="21" fill="#3D94E4"/>
<path d="M35.6446 10.5305C35.3596 10.194 34.9411 10 34.5001 10H6.75C6.33551 10 6 10.3355 6 10.75C6 11.1645 6.33551 11.5 6.75 11.5H14.9795L14.7295 13H11.25C10.8355 13 10.5 13.3355 10.5 13.75C10.5 14.1645 10.8355 14.5 11.25 14.5H14.4795L14.2295 16H8.25C7.83551 16 7.5 16.3355 7.5 16.75C7.5 17.1645 7.83551 17.5 8.25 17.5H13.9795L13.7295 19H12.75C12.3355 19 12 19.3355 12 19.75C12 20.1645 12.3355 20.5 12.75 20.5H13.4795L13.2295 22H9.75001C9.33551 22 9.00001 22.3355 9.00001 22.75C9.00001 23.1645 9.33551 23.5 9.75001 23.5H12.9795L12.0205 29.2535C11.948 29.6885 12.0705 30.133 12.3555 30.4695C12.6405 30.806 13.059 31 13.5 31H31.5001C32.2331 31 32.8591 30.4701 32.9795 29.7465L35.9796 11.7465C36.0521 11.3115 35.9296 10.867 35.6446 10.5305ZM24 11.5H27L26.25 16H23.25L24 11.5ZM24 29.5H21L21.75 25H24.75L24 29.5ZM31.5001 29.5H25.5205L26.2295 25.2465C26.302 24.8115 26.1796 24.367 25.8946 24.0305C25.6096 23.694 25.1911 23.5 24.75 23.5H21.75C21.017 23.5 20.391 24.03 20.2705 24.7535L19.5 29.5H13.5L14.5 23.5H18.75C19.1645 23.5 19.5 23.1645 19.5 22.75C19.5 22.3355 19.1645 22 18.75 22H14.75L15 20.5H17.25C17.6645 20.5 18 20.1645 18 19.75C18 19.3355 17.6645 19 17.25 19H15.25L15.5001 17.5H18.75C19.1645 17.5 19.5 17.1645 19.5 16.75C19.5 16.3355 19.1645 16 18.75 16H15.75L16 14.5H20.25C20.6645 14.5 21 14.1645 21 13.75C21 13.3355 20.6645 13 20.25 13H16.25L16.5 11.5H22.4795L21.7705 15.7535C21.6981 16.1885 21.8205 16.633 22.1055 16.9695C22.3905 17.306 22.809 17.5 23.25 17.5H26.25C26.983 17.5 27.6091 16.97 27.7295 16.2465L28.5 11.5H34.5001L31.5001 29.5Z" fill="white"/>
</svg>
