<svg width="23" height="15" viewBox="0 0 23 15" fill="none" xmlns="http://www.w3.org/2000/svg">
<path d="M17.9533 4.35111H11.9943C12.2198 2.73083 13.6137 1.47914 15.2951 1.47914C15.5502 1.47914 15.7568 1.27247 15.7568 1.01752C15.7568 0.762622 15.5502 0.555908 15.2951 0.555908C13.1039 0.555908 11.2947 2.22022 11.0638 4.35106H5.04659C2.26384 4.35106 0 6.61489 0 9.39754C0 12.1802 2.26379 14.4441 5.04659 14.4441C7.1553 14.4441 9.05315 13.1046 9.77798 11.1467H13.222C13.9469 13.1047 15.8447 14.4441 17.9534 14.4441C20.7361 14.4441 23.0001 12.1803 23.0001 9.39754C22.9999 6.61494 20.7361 4.35111 17.9533 4.35111ZM17.9533 13.5209C16.1349 13.5209 14.5085 12.3016 13.9982 10.5556C13.9408 10.3587 13.7602 10.2234 13.5551 10.2234H9.44486C9.2397 10.2234 9.05921 10.3587 9.00176 10.5556C8.49151 12.3016 6.86503 13.5209 5.04659 13.5209C2.77299 13.5209 0.92323 11.6712 0.92323 9.39769C0.92323 7.124 2.77304 5.27438 5.04659 5.27438H17.9534C20.227 5.27438 22.0766 7.12405 22.0766 9.39769C22.0767 11.6712 20.2269 13.5209 17.9533 13.5209Z" fill="#4E4E4E"/>
<path d="M4.98803 5.6622C2.92841 5.6622 1.25269 7.33787 1.25269 9.39765C1.25269 11.4574 2.92841 13.133 4.98803 13.133C7.04765 13.133 8.72347 11.4574 8.72347 9.39765C8.72352 7.33787 7.04765 5.6622 4.98803 5.6622ZM4.98803 12.2098C3.43731 12.2098 2.17586 10.9483 2.17586 9.39765C2.17586 7.84693 3.43731 6.58543 4.98803 6.58543C6.53875 6.58543 7.80019 7.84693 7.80019 9.39765C7.80019 10.9483 6.53875 12.2098 4.98803 12.2098Z" fill="#4E4E4E"/>
<path d="M6.50743 8.6529H5.73297V7.87829C5.73297 7.75074 5.62979 7.64746 5.50214 7.64746H4.47398C4.34633 7.64746 4.24315 7.75074 4.24315 7.87829V8.6529H3.46869C3.34114 8.6529 3.23785 8.75618 3.23785 8.88368V9.91189C3.23785 10.0394 3.34114 10.1427 3.46869 10.1427H4.24315V10.9172C4.24315 11.0446 4.34633 11.148 4.47398 11.148H5.50214C5.62979 11.148 5.73297 11.0446 5.73297 10.9172V10.1427H6.50743C6.63499 10.1427 6.73827 10.0394 6.73827 9.91189V8.88368C6.73827 8.75623 6.63494 8.6529 6.50743 8.6529Z" fill="#4E4E4E"/>
<path d="M18.0119 5.6622C15.9522 5.6622 14.2765 7.33787 14.2765 9.39765C14.2765 11.4574 15.9522 13.133 18.0119 13.133C20.0715 13.133 21.7472 11.4574 21.7472 9.39765C21.7473 7.33787 20.0715 5.6622 18.0119 5.6622ZM18.0119 12.2098C16.4612 12.2098 15.1996 10.9483 15.1996 9.39765C15.1996 7.84693 16.4612 6.58543 18.0119 6.58543C19.5625 6.58543 20.824 7.84693 20.824 9.39765C20.824 10.9483 19.5625 12.2098 18.0119 12.2098Z" fill="#4E4E4E"/>
<path d="M18.0119 8.46837C18.4411 8.46837 18.789 8.12042 18.789 7.6912C18.789 7.26198 18.4411 6.91403 18.0119 6.91403C17.5827 6.91403 17.2347 7.26198 17.2347 7.6912C17.2347 8.12042 17.5827 8.46837 18.0119 8.46837Z" fill="#4E4E4E"/>
<path d="M19.7185 8.62073C19.2892 8.62073 18.9412 8.9687 18.9412 9.39764C18.9412 9.82678 19.2892 10.1747 19.7185 10.1747C20.1477 10.1747 20.4957 9.82678 20.4957 9.39764C20.4957 8.9687 20.1477 8.62073 19.7185 8.62073Z" fill="#4E4E4E"/>
<path d="M18.0119 10.3269C17.583 10.3269 17.2348 10.6749 17.2348 11.1042C17.2348 11.5336 17.583 11.8814 18.0119 11.8814C18.4412 11.8814 18.7889 11.5336 18.7889 11.1042C18.7889 10.6749 18.4412 10.3269 18.0119 10.3269Z" fill="#4E4E4E"/>
<path d="M16.3055 8.62073C15.8763 8.62073 15.528 8.9687 15.528 9.39764C15.528 9.82698 15.8763 10.1747 16.3055 10.1747C16.7348 10.1747 17.0825 9.82698 17.0825 9.39764C17.0825 8.9687 16.7348 8.62073 16.3055 8.62073Z" fill="#4E4E4E"/>
<path d="M10.7515 8.7663H9.59433C9.4199 8.7663 9.27853 8.9076 9.27853 9.08209C9.27853 9.25657 9.41985 9.39788 9.59433 9.39788H10.7515C10.9259 9.39788 11.0673 9.25662 11.0673 9.08209C11.0673 8.9076 10.9259 8.7663 10.7515 8.7663Z" fill="#4E4E4E"/>
<path d="M13.4056 8.7663H12.2484C12.074 8.7663 11.9326 8.9076 11.9326 9.08209C11.9326 9.25657 12.0739 9.39788 12.2484 9.39788H13.4056C13.58 9.39788 13.7214 9.25662 13.7214 9.08209C13.7214 8.9076 13.5801 8.7663 13.4056 8.7663Z" fill="#4E4E4E"/>
</svg>
