<svg width="23" height="23" viewBox="0 0 23 23" fill="none" xmlns="http://www.w3.org/2000/svg">
<path d="M6.9116 11.8833C6.9116 11.6717 6.74027 11.5 6.52829 11.5H6.52447C6.31289 11.5 6.14304 11.6717 6.14304 11.8833C6.14304 12.0949 6.3167 12.2666 6.52829 12.2666C6.74027 12.2667 6.9116 12.0949 6.9116 11.8833Z" fill="#4E4E4E"/>
<path d="M9.96677 20.3167V18.7833C9.96677 18.5718 9.79503 18.4 9.58345 18.4C9.37187 18.4 9.20013 18.5718 9.20013 18.7833V20.3167C9.20013 20.5282 9.37187 20.7 9.58345 20.7C9.79503 20.7 9.96677 20.5282 9.96677 20.3167Z" fill="#4E4E4E"/>
<path d="M21.0833 0H1.91668C0.9315 0 0 0.9315 0 1.91668V11.8834C0 12.0949 0.171736 12.2667 0.383318 12.2667C0.5949 12.2667 0.766637 12.0949 0.766637 11.8834V1.91668C0.766637 1.35776 1.35772 0.766682 1.91664 0.766682H21.0833C21.6422 0.766682 22.2333 1.35776 22.2333 1.91668V15.7167C22.2333 16.2756 21.6422 16.8667 21.0833 16.8667H1.91668C1.35776 16.8667 0.766682 16.2756 0.766682 15.7167V13.8H21.0834C21.2949 13.8 21.4667 13.6283 21.4667 13.4167C21.4667 13.2051 21.2949 13.0334 21.0834 13.0334H0.383318C0.171736 13.0334 0 13.2051 0 13.4167V15.7167C0 16.7019 0.9315 17.6334 1.91668 17.6334H21.0834C22.0685 17.6334 23 16.7019 23 15.7167V1.91668C23 0.9315 22.0685 0 21.0833 0Z" fill="#4E4E4E"/>
<path d="M15.7168 22.2333H15.3335V21.85C15.3335 21.6384 15.1617 21.4667 14.9502 21.4667C14.7386 21.4667 14.5668 21.6384 14.5668 21.85V22.2333H13.8001V21.85C13.8001 21.6384 13.6284 21.4667 13.4168 21.4667C13.2052 21.4667 13.0335 21.6384 13.0335 21.85V22.2333H12.2668V21.85C12.2668 21.6384 12.0951 21.4667 11.8835 21.4667C11.6719 21.4667 11.5002 21.6384 11.5002 21.85V22.2333H10.7335V21.85C10.7335 21.6384 10.5617 21.4667 10.3502 21.4667C10.1386 21.4667 9.96684 21.6384 9.96684 21.85V22.2333H9.20012V21.85C9.20012 21.6384 9.02838 21.4667 8.8168 21.4667C8.60521 21.4667 8.43348 21.6384 8.43348 21.85V22.2333H7.6668V21.85C7.6668 21.6384 7.49506 21.4667 7.28348 21.4667C7.0719 21.4667 6.90016 21.6384 6.90016 21.85V22.2333H6.13348V21.85C6.13348 21.6384 5.96174 21.4667 5.75016 21.4667C5.53858 21.4667 5.36684 21.6384 5.36684 21.85V22.2333H4.60012V21.85C4.60012 21.6384 4.42838 21.4667 4.2168 21.4667C4.00521 21.4667 3.83348 21.6384 3.83348 21.85V22.2333H3.0668V21.85C3.0668 21.6384 2.89506 21.4667 2.68348 21.4667C2.4719 21.4667 2.30011 21.6384 2.30011 21.85V22.2333H1.9168C1.70521 22.2333 1.53348 22.405 1.53348 22.6166C1.53348 22.8282 1.70517 23 1.9168 23H15.7168C15.9284 23 16.1001 22.8283 16.1001 22.6167C16.1001 22.4051 15.9284 22.2333 15.7168 22.2333Z" fill="#4E4E4E"/>
<path d="M13.4168 20.7C13.6284 20.7 13.8001 20.5282 13.8001 20.3167V18.7833C13.8001 18.5718 13.6284 18.4 13.4168 18.4C13.2052 18.4 13.0335 18.5718 13.0335 18.7833V20.3167C13.0334 20.5282 13.2052 20.7 13.4168 20.7Z" fill="#4E4E4E"/>
<path d="M19.9334 20.7H19.1667C18.3211 20.7 17.6334 21.3877 17.6334 22.2333V22.6166C17.6334 22.8282 17.8051 22.9999 18.0167 22.9999H21.0834C21.295 22.9999 21.4667 22.8282 21.4667 22.6166V22.2333C21.4668 21.3877 20.779 20.7 19.9334 20.7ZM18.4001 22.2333C18.4001 21.8105 18.7439 21.4666 19.1668 21.4666H19.9334C20.3562 21.4666 20.7001 21.8105 20.7001 22.2333H18.4001Z" fill="#4E4E4E"/>
<path d="M16.8782 11.8833C16.8782 11.6717 16.7069 11.5 16.4949 11.5H16.4911C16.2795 11.5 16.1097 11.6717 16.1097 11.8833C16.1097 12.0949 16.2833 12.2666 16.4949 12.2666C16.7069 12.2667 16.8782 12.0949 16.8782 11.8833Z" fill="#4E4E4E"/>
<path d="M15.3449 11.8833C15.3449 11.6717 15.1736 11.5 14.9616 11.5H14.9578C14.7462 11.5 14.5764 11.6717 14.5764 11.8833C14.5764 12.0949 14.75 12.2666 14.9616 12.2666C15.1736 12.2667 15.3449 12.0949 15.3449 11.8833Z" fill="#4E4E4E"/>
<path d="M10.7334 15.3333C10.7334 15.7561 11.0773 16.1 11.5001 16.1C11.9229 16.1 12.2668 15.7562 12.2668 15.3333C12.2668 14.9105 11.923 14.5667 11.5001 14.5667C11.0773 14.5667 10.7334 14.9105 10.7334 15.3333Z" fill="#4E4E4E"/>
<path d="M11.5116 11.8833C11.5116 11.6717 11.3403 11.5 11.1283 11.5H11.1245C10.9129 11.5 10.743 11.6717 10.743 11.8833C10.743 12.0949 10.9167 12.2666 11.1283 12.2666C11.3403 12.2667 11.5116 12.0949 11.5116 11.8833Z" fill="#4E4E4E"/>
<path d="M9.97828 11.8833C9.97828 11.6717 9.80695 11.5 9.59497 11.5H9.59115C9.37957 11.5 9.20972 11.6717 9.20972 11.8833C9.20972 12.0949 9.38338 12.2666 9.59497 12.2666C9.80691 12.2667 9.97828 12.0949 9.97828 11.8833Z" fill="#4E4E4E"/>
<path d="M8.4449 11.8833C8.4449 11.6717 8.27357 11.5 8.06158 11.5H8.05776C7.84618 11.5 7.67633 11.6717 7.67633 11.8833C7.67633 12.0949 7.85 12.2666 8.06158 12.2666C8.27357 12.2667 8.4449 12.0949 8.4449 11.8833Z" fill="#4E4E4E"/>
<path d="M13.0449 11.8833C13.0449 11.6717 12.8736 11.5 12.6616 11.5H12.6578C12.4462 11.5 12.2763 11.6717 12.2763 11.8833C12.2763 12.0949 12.45 12.2666 12.6616 12.2666C12.8736 12.2667 13.0449 12.0949 13.0449 11.8833Z" fill="#4E4E4E"/>
</svg>
