<svg width="36" height="36" viewBox="0 0 36 36" fill="none" xmlns="http://www.w3.org/2000/svg">
<circle cx="18" cy="18" r="17" stroke="#FD9C00" stroke-width="2"/>
<path d="M15.5793 20.1717H17.0064C17.4136 20.1717 17.7438 20.5018 17.7438 20.9091C17.7438 20.9773 17.7338 21.043 17.7164 21.1057H14.8693C14.8519 21.043 14.8419 20.9773 14.8419 20.9091C14.8419 20.5018 15.1721 20.1717 15.5793 20.1717Z" fill="#D69513"/>
<path d="M11.2534 20.1717H12.6805C13.0877 20.1717 13.4178 20.5018 13.4178 20.9091C13.4178 20.9773 13.4079 21.043 13.3905 21.1057H10.5433C10.526 21.043 10.516 20.9773 10.516 20.9091C10.516 20.5018 10.8462 20.1717 11.2534 20.1717Z" fill="#D69513"/>
<path d="M20.5458 18.6479H21.2093V18.2781C21.2093 18.0067 21.4295 17.7866 21.7009 17.7866C21.9723 17.7866 22.1925 18.0067 22.1925 18.2781V18.6479H23.1756V18.2781C23.1756 18.0067 23.3958 17.7866 23.6672 17.7866C23.9386 17.7866 24.1588 18.0067 24.1588 18.2781V18.6479H24.8224C25.0938 18.6479 25.314 18.868 25.314 19.1395V21.1057H20.0542V19.1395C20.0542 18.868 20.2743 18.6479 20.5458 18.6479Z" fill="#D69513"/>
<path d="M8.5021 22.0888H10.3922V22.0888C10.3918 22.097 10.391 22.1051 10.391 22.1134V28H9.14294C8.73572 28 8.40555 27.6699 8.40555 27.2626V22.0792C8.43675 22.0854 8.46906 22.0888 8.5021 22.0888Z" fill="#D69513"/>
<path d="M21.2003 22.0888C21.1999 22.097 21.1991 22.1051 21.1991 22.1134V28H18.5795V22.1134C18.5795 22.1051 18.5787 22.097 18.5783 22.0888H21.2003Z" fill="#D69513"/>
<path d="M27.7439 22.0888C27.7528 22.0888 27.7615 22.0879 27.7703 22.0875V27.2626C27.7703 27.6698 27.4401 28 27.0329 28H25.7849V22.1134C25.7849 22.1051 25.7841 22.097 25.7836 22.0888H27.7439Z" fill="#D69513"/>
<path d="M17.5977 22.0888C17.5973 22.097 17.5964 22.1051 17.5964 22.1134V28H14.9769V22.1134C14.9769 22.1051 14.976 22.097 14.9756 22.0888H17.5977Z" fill="#D69513"/>
<path d="M13.9948 22.0888C13.9944 22.097 13.9935 22.1051 13.9935 22.1134V28H11.374V22.1134C11.374 22.1051 11.3731 22.097 11.3727 22.0888H13.9948Z" fill="#D69513"/>
<path d="M24.803 22.0888C24.8026 22.097 24.8017 22.1051 24.8017 22.1134V28H22.1822V22.1134C22.1822 22.1051 22.1814 22.097 22.1809 22.0888H24.803Z" fill="#D69513"/>
<path d="M7.73745 12.4988H8.73982L17.6598 6.13703C17.916 5.95432 18.26 5.95432 18.5161 6.13703L27.4361 12.4988H28.0943C28.5015 12.4988 28.8317 12.8289 28.8317 13.2362C28.8317 13.6434 28.5015 13.9736 28.0943 13.9736H27.7703V21.107C27.7615 21.1065 27.7529 21.1057 27.744 21.1057H26.2956V14.5725C26.001 14.7859 25.6391 14.9121 25.2474 14.9121C24.5672 14.9121 23.9762 14.5324 23.6734 13.9736H23.2416C22.9389 14.5323 22.3479 14.9121 21.6677 14.9121C20.9875 14.9121 20.3964 14.5324 20.0937 13.9736H19.6619C19.3592 14.5323 18.7681 14.9121 18.0879 14.9121C17.4077 14.9121 16.8167 14.5324 16.5139 13.9736H16.0821C15.7794 14.5323 15.1884 14.9121 14.5082 14.9121C13.828 14.9121 13.237 14.5324 12.9342 13.9736H12.5024C12.1997 14.5323 11.6087 14.9121 10.9285 14.9121C10.5368 14.9121 10.1749 14.7859 9.88025 14.5725V21.1057H8.50203C8.46899 21.1057 8.43672 21.1091 8.40548 21.1152V13.9736H7.7374C7.33019 13.9736 7.00002 13.6435 7.00002 13.2362C6.99993 12.829 7.33023 12.4988 7.73745 12.4988Z" fill="#D69513"/>
</svg>
