<svg width="42" height="44" viewBox="0 0 42 44" fill="none" xmlns="http://www.w3.org/2000/svg">
<circle cx="21" cy="23" r="21" fill="#FD9C00"/>
<g clip-path="url(#clip0_73_163)">
<path d="M12.1165 15.9973C12.242 16.074 12.387 16.0928 12.5197 16.0608C12.6525 16.0287 12.7729 15.9459 12.8496 15.8204C13.0034 15.5688 12.9244 15.2411 12.6727 15.0873C12.0194 14.6876 11.8127 13.8311 12.2118 13.1774C12.554 12.6175 12.6582 11.9581 12.5043 11.3204C12.3505 10.6827 11.9575 10.1433 11.3971 9.8012C11.1454 9.6474 10.8178 9.72648 10.664 9.97811C10.5102 10.2297 10.5893 10.5574 10.8409 10.7112C11.1575 10.9047 11.3804 11.2098 11.4674 11.5706C11.5545 11.9314 11.4958 12.3044 11.3018 12.6212C10.5958 13.7764 10.9613 15.2913 12.1165 15.9973Z" fill="white"/>
<path d="M23.5224 13.2448C23.6479 13.3215 23.7929 13.3403 23.9256 13.3083C24.0583 13.2762 24.1788 13.1934 24.2555 13.0679C24.4093 12.8163 24.3302 12.4886 24.0786 12.3348C23.4253 11.9351 23.2186 11.0786 23.6177 10.4248C23.9599 9.86495 24.0641 9.20556 23.9102 8.56787C23.7563 7.93018 23.3634 7.39077 22.8029 7.0487C22.5513 6.8949 22.2237 6.97397 22.0699 7.22561C21.9161 7.47724 21.9951 7.8049 22.2468 7.9587C22.5634 8.15222 22.7862 8.45725 22.8733 8.8181C22.9604 9.17894 22.9017 9.55191 22.7077 9.86867C22.0016 11.0239 22.3672 12.5388 23.5224 13.2448Z" fill="white"/>
<path d="M17.0688 11.5103C17.1943 11.587 17.3393 11.6058 17.472 11.5738C17.6047 11.5417 17.7252 11.4589 17.8019 11.3334C17.9557 11.0818 17.8766 10.7541 17.625 10.6003C16.9716 10.2006 16.765 9.34409 17.1641 8.69035C17.5063 8.13045 17.6105 7.47107 17.4566 6.83337C17.3027 6.19568 16.9098 5.65628 16.3493 5.3142C16.0977 5.1604 15.77 5.23948 15.6162 5.49111C15.4625 5.74274 15.5415 6.0704 15.7932 6.2242C16.1098 6.41772 16.3326 6.72276 16.4197 7.0836C16.5068 7.44444 16.4481 7.81741 16.2541 8.13417C15.548 9.28937 15.9136 10.8043 17.0688 11.5103Z" fill="white"/>
<path d="M34.3084 23.2147C32.0376 17.9245 26.6792 14.5789 20.9481 14.8383C20.9369 14.7532 20.9303 14.6665 20.9104 14.584C20.5654 13.1547 19.1219 12.2724 17.6926 12.6173C16.2632 12.9623 15.3809 14.4058 15.7259 15.8352C15.7458 15.9176 15.7789 15.9979 15.8082 16.0786C10.5896 18.4616 7.34689 23.8829 7.73879 29.6265C6.80324 30.5013 5.83588 31.6899 6.08022 32.7024C6.71642 35.3388 15.1859 35.1685 22.6972 33.3559C30.2085 31.5432 37.8235 27.832 37.1873 25.1957C36.9429 24.1831 35.5399 23.5665 34.3084 23.2147ZM16.7875 15.6739C16.7782 15.6443 16.7699 15.6145 16.7629 15.5854C16.556 14.7279 17.0854 13.8617 17.9429 13.6548C18.8004 13.4478 19.6667 13.9772 19.8736 14.8348C19.8807 14.8643 19.8868 14.8941 19.892 14.9247C19.867 14.928 19.8424 14.9328 19.8179 14.936C19.6348 14.9593 19.4521 14.9886 19.2686 15.0197C19.2012 15.0311 19.1337 15.0402 19.0664 15.0526C18.8174 15.0984 18.5683 15.1503 18.3189 15.2105C18.0695 15.2707 17.8241 15.3381 17.5816 15.4109C17.5161 15.4306 17.4519 15.4532 17.3867 15.4739C17.2092 15.5299 17.0334 15.5877 16.8596 15.6499C16.8354 15.6585 16.8111 15.6649 16.7875 15.6739ZM16.359 18.1721C17.1346 17.7896 17.9596 17.4912 18.8114 17.2857C18.8135 17.2852 18.8161 17.2845 18.8187 17.2839C19.1049 17.2148 19.3932 17.3911 19.4624 17.6778C19.5315 17.964 19.3551 18.2517 19.0689 18.3208C19.0669 18.3213 19.0643 18.3219 19.0622 18.3224C18.2866 18.5096 17.5367 18.7806 16.8312 19.1286C16.7949 19.1466 16.7574 19.1595 16.7196 19.1687C16.4827 19.2258 16.2291 19.1142 16.1165 18.8863C15.9864 18.6219 16.0947 18.3023 16.359 18.1721ZM13.5562 20.1444C13.7678 19.9391 14.1048 19.944 14.3104 20.1549C14.5162 20.3664 14.5115 20.7039 14.2998 20.9091C12.2057 22.9463 11.0595 26.004 11.2339 29.0886C11.2486 29.3495 11.0726 29.5774 10.8268 29.6367C10.7957 29.6442 10.764 29.6492 10.7314 29.6504C10.4375 29.6671 10.1853 29.4426 10.1685 29.1482C9.97791 25.7597 11.2444 22.3937 13.5562 20.1444ZM22.447 32.319C13.5835 34.4579 7.39625 33.6089 7.11713 32.4522C7.06921 32.2537 7.20936 31.7568 7.89595 30.987C7.901 31.0171 7.90905 31.0459 7.9141 31.0759C7.96504 31.3643 8.02166 31.6535 8.09147 31.9428L8.19006 32.3513L8.61086 32.3513C13.138 32.3456 17.6653 31.8039 22.0664 30.7419C26.4675 29.6798 30.7436 28.097 34.775 26.0373L35.1495 25.8454L35.0509 25.4369C34.9811 25.1476 34.8997 24.8649 34.8134 24.5845C34.8042 24.5555 34.7982 24.5262 34.789 24.4972C35.7511 24.869 36.1025 25.2473 36.1504 25.4459C36.4295 26.6025 31.3104 30.18 22.447 32.319Z" fill="white"/>
</g>
<defs>
<clipPath id="clip0_73_163">
<rect width="32" height="32" fill="white" transform="translate(0 7.50677) rotate(-13.5673)"/>
</clipPath>
</defs>
</svg>
