<svg width="21" height="23" viewBox="0 0 21 23" fill="none" xmlns="http://www.w3.org/2000/svg">
<path d="M20.7612 15.606L15.0991 9.94177C15.3078 9.56931 15.4268 9.1402 15.4268 8.68367C15.4268 7.77574 14.9559 6.97581 14.2455 6.51548L14.8848 2.87106C15.005 2.1604 14.8061 1.43595 14.3393 0.883294C13.865 0.321953 13.1692 0 12.4301 0H8.53181C7.79272 0 7.09685 0.321953 6.62263 0.883294C6.15582 1.43586 5.95699 2.1604 6.0771 2.87106C6.07762 2.8742 6.07818 2.87735 6.07875 2.88049L6.98091 7.80883V8.86143L0.238813 15.606C0.0287155 15.8162 -0.0268131 16.1357 0.100062 16.4045C0.639624 17.5475 1.36051 18.589 2.24272 19.5001C3.30307 20.5952 4.54685 21.4561 5.93939 22.059C7.38177 22.6834 8.91619 23 10.5001 23C12.0839 23 13.6183 22.6834 15.0607 22.0589C16.4532 21.456 17.697 20.5951 18.7573 19.5001C19.6396 18.5889 20.3604 17.5474 20.8999 16.4045C21.0268 16.1357 20.9713 15.8162 20.7612 15.606ZM14.0191 8.68367C14.0191 9.33072 13.4929 9.85714 12.846 9.85714C12.1992 9.85714 11.673 9.33072 11.673 8.68367C11.673 8.03662 12.1992 7.5102 12.846 7.5102C12.9761 7.5102 13.1013 7.53147 13.2183 7.57076C13.226 7.57362 13.2338 7.57629 13.2416 7.57888C13.6944 7.74157 14.0191 8.17542 14.0191 8.68367ZM7.69771 1.79226C7.90391 1.54818 8.20794 1.40816 8.53177 1.40816H12.4301C12.7539 1.40816 13.0579 1.54813 13.2641 1.79226C13.4658 2.03104 13.5485 2.33084 13.4976 2.632L12.8888 6.10246C12.8746 6.10223 12.8603 6.10209 12.846 6.10209C11.6669 6.10209 10.67 6.89718 10.3629 7.97964H8.38851V7.74495C8.38851 7.70242 8.38466 7.65994 8.37696 7.61812L7.46433 2.63219C7.41411 2.32816 7.49691 2.02996 7.69771 1.79226ZM18.1134 18.1205L14.2822 14.2879C14.0074 14.013 13.5617 14.013 13.2869 14.2879C13.012 14.5628 13.012 15.0086 13.2869 15.2836L17.1186 19.1167C15.2839 20.7188 12.9645 21.5918 10.5 21.5918C7.74517 21.5918 5.1717 20.501 3.25378 18.5203C2.59378 17.8387 2.03671 17.0741 1.59342 16.2423L8.1824 9.65089C8.25736 9.57593 8.31364 9.48581 8.34828 9.38776H10.3629C10.6701 10.4702 11.6669 11.2653 12.8461 11.2653C13.3024 11.2653 13.7314 11.1463 14.1037 10.9375L19.4066 16.2424C19.0481 16.9151 18.6151 17.5439 18.1134 18.1205Z" fill="#4E4E4E"/>
</svg>
