<svg width="23" height="23" viewBox="0 0 23 23" fill="none" xmlns="http://www.w3.org/2000/svg">
<path d="M21.2117 4.49278L19.2587 4.12346V0.367021C19.2587 0.164328 19.0944 0 18.8917 0H4.10838C3.90564 0 3.74136 0.164328 3.74136 0.367021V4.12346L1.78729 4.49298C0.915488 4.66039 0.206207 5.51878 0.206207 6.40653V21.3263C0.206207 22.2492 0.957035 23 1.87997 23H21.1201C22.043 23 22.7938 22.2492 22.7938 21.3263V6.40648C22.7938 5.51873 22.0845 4.66034 21.2117 4.49278ZM22.0597 21.3263C22.0597 21.8444 21.6382 22.266 21.1201 22.266H1.87997C1.36184 22.266 0.940299 21.8444 0.940299 21.3263V6.40648C0.940299 5.86255 1.39159 5.31643 1.9247 5.214L4.01193 4.81933L4.76559 5.41626C4.83303 5.46964 4.91343 5.49558 4.9932 5.49558C5.10144 5.49558 5.20871 5.44787 5.28114 5.35641C5.407 5.19751 5.38018 4.96668 5.22129 4.84081L4.4754 4.25006V0.734043H18.5246V4.25006L17.7788 4.84081C17.6199 4.96668 17.593 5.19751 17.7189 5.35641C17.8447 5.51535 18.0756 5.54217 18.2345 5.41626L18.9881 4.81938L21.0743 5.21386C21.6085 5.31638 22.0597 5.86255 22.0597 6.40648V21.3263Z" fill="#4E4E4E"/>
<path d="M13.5798 12.041C13.0401 12.041 12.6011 12.4801 12.6011 13.0197C12.601 13.2811 12.7028 13.5269 12.8877 13.7118C13.0725 13.8967 13.3183 13.9985 13.5797 13.9985C14.1193 13.9985 14.5584 13.5594 14.5585 13.0198C14.5585 12.4801 14.1195 12.041 13.5798 12.041ZM13.5798 13.2645C13.5145 13.2645 13.453 13.239 13.4068 13.1928C13.3606 13.1466 13.3352 13.0851 13.3352 13.0198C13.3352 12.8849 13.4449 12.7751 13.5798 12.7751C13.7147 12.7751 13.8245 12.8849 13.8245 13.0197C13.8245 13.1547 13.7146 13.2645 13.5798 13.2645Z" fill="#4E4E4E"/>
<path d="M13.5798 19.5745C13.0401 19.5745 12.6011 20.0135 12.6011 20.5531C12.601 20.8146 12.7028 21.0604 12.8877 21.2452C13.0725 21.4301 13.3183 21.5319 13.5797 21.5319C14.1193 21.5319 14.5584 21.0928 14.5585 20.5532C14.5585 20.2918 14.4567 20.046 14.2718 19.8611C14.087 19.6763 13.8412 19.5745 13.5798 19.5745ZM13.5798 20.7979C13.5144 20.7979 13.453 20.7724 13.4068 20.7262C13.3606 20.68 13.3352 20.6186 13.3352 20.5532C13.3352 20.4183 13.4449 20.3085 13.5799 20.3085C13.6452 20.3085 13.7066 20.334 13.7528 20.3801C13.799 20.4263 13.8245 20.4878 13.8245 20.5531C13.8245 20.6881 13.7146 20.7979 13.5798 20.7979Z" fill="#4E4E4E"/>
<path d="M13.5798 15.8077C13.0401 15.8077 12.6011 16.2468 12.6011 16.7864C12.601 17.0478 12.7028 17.2936 12.8877 17.4785C13.0725 17.6633 13.3183 17.7652 13.5797 17.7652C14.1193 17.7652 14.5584 17.3261 14.5585 16.7865C14.5585 16.2468 14.1195 15.8077 13.5798 15.8077ZM13.5798 17.0311C13.5144 17.0311 13.453 17.0057 13.4068 16.9595C13.3606 16.9133 13.3352 16.8519 13.3352 16.7865C13.3352 16.6515 13.4449 16.5418 13.5798 16.5418C13.7147 16.5418 13.8245 16.6515 13.8245 16.7864C13.8245 16.9213 13.7146 17.0311 13.5798 17.0311Z" fill="#4E4E4E"/>
<path d="M11.5 10.573C11.2972 10.573 11.133 10.7373 11.133 10.94V21.1649C11.133 21.3676 11.2972 21.5319 11.5 21.5319C11.7027 21.5319 11.867 21.3676 11.867 21.1649V10.94C11.867 10.7373 11.7027 10.573 11.5 10.573Z" fill="#4E4E4E"/>
<path d="M16.5821 5.09997C15.0625 4.80778 13.2932 5.88232 12.8562 6.16859H12.6011V4.53393L17.5245 3.12413C17.682 3.07906 17.7905 2.93509 17.7905 2.7713V1.8351C17.7905 1.63241 17.6263 1.46808 17.4235 1.46808C17.2208 1.46808 17.0565 1.63241 17.0565 1.8351V2.49466L12.133 3.90446C11.9756 3.94953 11.867 4.0935 11.867 4.25729V6.16864H11.133V4.25729C11.133 4.0935 11.0244 3.94953 10.867 3.90446L5.94348 2.49466V1.8351C5.94348 1.63241 5.77921 1.46808 5.57646 1.46808C5.37372 1.46808 5.20944 1.63241 5.20944 1.8351V2.7713C5.20944 2.93509 5.31798 3.07906 5.47546 3.12413L10.3989 4.53393V6.16859H10.1437C9.70658 5.88232 7.9371 4.80792 6.41792 5.09997C6.32235 5.11833 6.23793 5.17397 6.18332 5.25456C6.15259 5.29998 5.43029 6.38499 5.43029 8.00375C5.43029 9.62246 6.15259 10.7075 6.18332 10.7529C6.23793 10.8335 6.32235 10.8891 6.41792 10.9075C6.59688 10.9419 6.77927 10.9573 6.96263 10.9573C8.33534 10.9573 9.75791 10.0915 10.1438 9.8389H12.8562C13.2421 10.0915 14.6646 10.9573 16.0374 10.9573C16.2206 10.9573 16.4032 10.9419 16.5821 10.9075C16.6777 10.8891 16.7621 10.8335 16.8167 10.7529C16.8474 10.7075 17.5697 9.62246 17.5697 8.00375C17.5697 6.38499 16.8474 5.29998 16.8167 5.25456C16.762 5.17397 16.6776 5.11837 16.5821 5.09997ZM6.7133 10.2103C6.5454 9.90697 6.16433 9.09781 6.16433 8.00375C6.16433 6.91805 6.54672 6.10214 6.71413 5.79702C7.8518 5.67047 9.21134 6.44914 9.66484 6.73425V7.63673H8.56382C8.36108 7.63673 8.1968 7.80105 8.1968 8.00375C8.1968 8.20644 8.36108 8.37077 8.56382 8.37077H9.66489V9.27325C9.21095 9.55865 7.85087 10.3378 6.7133 10.2103ZM12.6011 9.10486H10.3989V6.90264H12.6011V9.10486ZM16.2858 10.2104C15.149 10.337 13.789 9.55835 13.335 9.27315V8.37072H14.4362C14.6389 8.37072 14.8032 8.20639 14.8032 8.0037C14.8032 7.80101 14.6389 7.63668 14.4362 7.63668H13.3351V6.7339C13.7881 6.44836 15.145 5.66949 16.2858 5.79692C16.4536 6.10282 16.8356 6.91849 16.8356 8.0037C16.8356 9.08945 16.4532 9.90536 16.2858 10.2104Z" fill="#4E4E4E"/>
</svg>
